<svg width="111" height="111" viewBox="0 0 111 111" fill="none" xmlns="http://www.w3.org/2000/svg">
<g filter="url(#filter0_b_4_502)">
<rect x="0.513611" width="110" height="110" rx="55" transform="rotate(0.26753 0.513611 0)" fill="url(#paint0_linear_4_502)"/>
</g>
<path d="M33.7533 25.8075C32.8021 25.8838 32.9394 27.0622 32.5966 27.5058C32.0481 28.2157 31.8235 29.1615 31.5347 29.9438C31.1722 30.9258 30.724 31.8882 30.6814 32.9022C30.67 33.174 30.2741 33.4855 30.1789 33.772C30.0159 34.2627 30.1445 34.8318 29.9134 35.2991C29.1551 36.8329 28.6335 38.4215 28.6335 40.0518C28.6335 41.7607 27.7802 43.3558 27.7802 45.0373" stroke="#827E7E" stroke-width="2"/>
<path d="M27.9509 45.2839C29.3698 45.2839 30.715 43.7246 31.5726 43.0924C32.2109 42.622 33.0643 42.2334 33.5826 41.6817C34.0123 41.2243 34.3634 40.8297 34.91 40.449C35.3691 40.1292 35.7276 39.8246 36.3511 39.7094C37.0638 39.5777 37.5932 39.0725 38.3231 38.9972C38.6523 38.9632 39.9266 38.4614 40.0677 38.2576" stroke="#827E7E" stroke-width="2"/>
<path d="M40.0676 38.2576C40.6891 38.2014 39.0029 34.9427 38.9109 34.7102C38.7169 34.2197 38.218 33.695 38.1904 33.1762C38.1602 32.6088 37.5613 32.2932 37.5077 31.7517C37.4523 31.1909 36.9475 30.5583 36.6924 30.026C36.4889 29.6015 36.2992 29.2884 36.0097 28.8892C35.6372 28.3755 35.0528 27.9906 34.5686 27.5332C34.0558 27.0488 33.7889 26.4752 33.4119 25.9307" stroke="#827E7E" stroke-width="2"/>
<path d="M68.909 37.5179C69.3224 36.8834 69.3406 36.0965 69.5916 35.4224C69.9014 34.5904 70.0504 33.7643 70.4449 32.9502C70.7927 32.2324 70.7595 31.3747 71.3077 30.7313C71.9432 29.9854 72.5173 29.2528 73.0427 28.4646C73.235 28.1762 73.361 27.817 73.6116 27.5537C73.7779 27.379 74.0639 27.3262 74.2373 27.136C74.4308 26.9238 74.9219 26.2964 75.2329 26.1841C75.9294 25.9326 76.2473 26.591 76.2473 27.0401" stroke="#827E7E" stroke-width="2"/>
<path d="M75.906 26.1773C76.1127 27.3715 77.5953 28.6224 78.2004 29.7794C78.8995 31.116 78.6366 32.6889 78.6366 34.0938C78.6366 35.1329 79.4899 35.84 79.4899 36.8605C79.4899 38.319 79.6605 39.7871 79.6605 41.2297C79.6605 41.9031 79.6605 42.5765 79.6605 43.2499C79.6605 43.3293 79.6758 44.1559 79.5657 44.0991C78.6385 43.6207 77.9313 42.8479 77.1765 42.2706C76.6636 41.8784 76.2911 41.3731 75.6216 41.0653C74.9432 40.7535 74.2503 40.4844 73.659 40.0929C72.3016 39.1942 70.501 38.3122 68.7383 37.8878" stroke="#827E7E" stroke-width="2"/>
<path d="M32.7293 21C32.1469 21.0841 31.6426 21.756 31.3072 22.0546C30.2191 23.0233 29.8492 24.2821 29.155 25.4103C28.6261 26.2698 28.4758 27.2356 28.1595 28.1496C27.7577 29.3103 27.4043 30.5792 27.126 31.7517C26.2948 35.2542 24.7084 38.8145 24.7084 42.4281C24.7084 44.2546 25.1429 46.0935 24.6705 47.9136C24.5483 48.384 24.5377 48.8125 24.5377 49.2969C24.5377 49.573 24.4605 50.8427 24.5756 50.6118C25.1647 49.4298 25.9452 48.4288 27.0218 47.4068C27.9984 46.4797 28.5192 45.3052 29.3162 44.2977" stroke="#827E7E" stroke-width="2"/>
<path d="M32.5587 21.1233C33.5919 21.5184 34.169 22.3293 35.0427 22.849C35.7999 23.2994 36.6408 23.8603 36.9579 24.5474C37.6341 26.0128 39.8572 27.073 40.883 28.3961C41.7385 29.4995 43.3348 30.1508 44.4669 31.0943C45.145 31.6595 45.8204 32.6563 46.0786 33.3816C46.4603 34.4537 47.918 35.2662 47.918 36.4085" stroke="#827E7E" stroke-width="2"/>
<path d="M47.918 36.4085C48.3476 36.6844 49.4416 36.5318 50.0038 36.5318C51.4007 36.5318 52.7976 36.5318 54.1944 36.5318C56.8807 36.5318 59.567 36.5318 62.2533 36.5318" stroke="#827E7E" stroke-width="2"/>
<path d="M62.0826 36.4085C63.058 36.0356 63.6273 34.8713 64.1874 34.2239C64.627 33.716 64.643 33.1664 65.0218 32.642C65.6451 31.779 65.9787 30.6019 66.7852 29.8137C67.5758 29.0412 68.3287 28.2367 69.0797 27.4373C70.2235 26.2198 71.7137 25.2282 73.0048 24.1091C73.6705 23.5321 74.4023 22.8035 75.3087 22.4244C75.9018 22.1764 76.2166 21.7544 76.7593 21.4931" stroke="#827E7E" stroke-width="2"/>
<path d="M76.7593 21.6163C77.065 21.6654 77.2152 21.9804 77.4704 22.1094C77.7905 22.2713 78.8072 22.3237 78.8072 22.6641C78.8072 23.071 79.0428 23.4715 79.2813 23.8352C79.7196 24.5035 79.7851 25.3321 80.0113 26.0403C80.0931 26.2963 80.4361 26.5238 80.5044 26.7457C80.5997 27.0557 80.4931 27.4218 80.5233 27.7387C80.7151 29.7471 82.847 31.0209 83.8796 32.7995C84.4613 33.8014 84.9621 34.1662 84.5148 35.1758C83.8376 36.7045 85.7518 37.9845 85.9749 39.3944C86.2092 40.8752 86.1456 42.487 86.1456 43.9827C86.1456 44.8831 86.4878 45.829 86.1835 46.7083C85.9323 47.4342 85.8043 48.1917 85.8043 48.9408C85.8043 49.5852 85.4211 50.148 85.2923 50.7761C85.263 50.9188 85.1497 51.9244 84.7045 51.5568C84.4361 51.3353 84.6258 50.7132 84.5717 50.4474C84.4927 50.059 84.1085 49.6462 83.7564 49.3517C83.4616 49.1052 83.388 48.7835 83.1306 48.5299C82.7921 48.1965 82.2414 47.8601 82.0687 47.4547C81.5804 46.3083 80.4655 45.249 79.3192 44.421" stroke="#827E7E" stroke-width="2"/>
<path d="M24.1964 50.7076C24.1964 51.0957 24.1964 51.4838 24.1964 51.8718C24.1964 53.2737 23.6993 54.4492 23.2577 55.7959C22.9624 56.6966 23.0017 57.6175 23.0017 58.5352C23.0017 59.5729 23.6844 60.5901 23.6844 61.6648C23.6844 62.6859 23.6402 63.7123 23.6844 64.7328C23.723 65.6251 24.5377 66.2882 24.5377 67.1708C24.5377 68.6596 24.3503 70.2354 24.5756 71.718C24.6833 72.4271 25.1601 73.2647 25.4668 73.9643C25.9762 75.1261 27.1718 76.2819 28.0741 77.3199C29.1546 78.5629 30.1872 79.9661 31.8286 80.8604C32.5981 81.2797 33.2523 81.5434 33.7817 82.0931C34.5849 82.9271 36.2737 83.4481 37.4319 83.9901C38.976 84.7127 40.847 85.1011 42.3241 85.8665C43.3559 86.4011 44.6303 86.7046 45.8321 86.9759C48.168 87.5032 50.3957 87.7453 52.7817 87.9963C55.3157 88.2628 57.4891 88.0721 59.9873 87.6881C61.5778 87.4437 63.4975 87.0718 65.1166 87.0718C66.7865 87.0718 68.158 86.3744 69.5727 85.798C70.3747 85.4712 71.4093 85.1869 72.0757 84.7297C72.6707 84.3214 73.0947 83.9228 73.7728 83.5518C75.974 82.3473 77.3469 80.5855 79.0537 79.0867C80.0709 78.1936 80.4991 76.9345 81.5378 76.1009C82.0923 75.6558 82.5617 74.7806 82.5617 74.1902C82.5617 73.8236 82.5926 73.5037 82.9789 73.2246C83.4857 72.8585 83.4057 72.2788 83.5003 71.7865C83.6709 70.8993 84.2749 70.2156 84.6096 69.3622C85.1268 68.0438 84.6768 66.7696 84.9604 65.4382C85.1423 64.5845 85.8042 63.7887 85.8042 62.9044C85.8042 62.2401 85.8042 61.5758 85.8042 60.9115C85.8042 59.428 85.9749 57.9298 85.9749 56.4328C85.9749 55.8141 86.1737 55.0367 85.9559 54.4468C85.6009 53.4852 85.3868 52.3234 84.7803 51.4473" stroke="#827E7E" stroke-width="2"/>
<path d="M30.8954 56.1389C30.7851 56.5454 30.5812 56.9251 30.567 57.3461C30.5576 57.6251 30.567 57.9051 30.567 58.1842C30.567 58.6762 30.567 59.1682 30.567 59.6603C30.567 60.2647 30.567 60.8692 30.567 61.4736C30.567 61.7423 30.859 61.9378 30.9465 62.1906C30.9841 62.2992 31.0189 62.4323 31.0268 62.5437C31.0459 62.8135 31.2484 63.0231 31.3552 63.2738C31.4053 63.3914 31.7056 63.8722 31.8806 63.9565C32.2511 64.1349 32.579 64.3345 33.0009 64.4678C33.3746 64.5859 33.7709 64.6861 34.165 64.763C34.4027 64.8094 34.6616 64.7769 34.9057 64.821C35.712 64.9666 36.5616 65.0794 37.3907 65.132C37.9 65.1644 38.4053 65.1311 38.9087 65.2006C39.316 65.2568 39.7164 65.3477 40.1238 65.393C40.3901 65.4226 40.643 65.4851 40.9157 65.5063C41.2904 65.5355 41.622 65.5152 41.9593 65.6486C42.4018 65.8237 42.8195 66.0142 43.2766 66.1732C43.6607 66.3067 43.8267 66.5297 44.1195 66.7504C44.6493 67.1496 45.7189 67.5293 45.9733 68.0972C46.042 68.2507 46.0767 68.4472 46.1667 68.5901C46.2265 68.6852 46.453 69.0697 46.4768 68.9644C46.5646 68.5771 46.5279 68.1749 46.5279 67.7836C46.5279 67.5668 46.4173 67.208 46.2214 67.0403C46.0501 66.8937 46.0016 66.7373 45.8455 66.587C45.6758 66.4235 45.6274 66.1942 45.477 66.0176C45.3814 65.9054 45.4238 65.7927 45.3967 65.6645C45.3519 65.4524 45.1595 65.3508 44.9588 65.2058C44.6038 64.9494 44.4381 64.7132 44.1779 64.4046C44.0407 64.2417 43.8415 64.1091 43.6525 63.9776C43.5194 63.885 43.3286 63.9312 43.1781 63.8458C43.0131 63.7521 43.0096 63.6041 42.8132 63.519C42.6149 63.433 42.3618 63.317 42.1272 63.3028C41.6463 63.2739 41.2436 63.013 40.777 62.9681C40.4918 62.9406 40.1803 62.8867 39.9304 62.7836C39.6588 62.6715 39.3264 62.7015 39.0328 62.6386C38.5815 62.5421 38.0838 62.456 37.6607 62.3171C37.4229 62.239 37.0935 62.2212 36.8361 62.2116C36.6039 62.203 36.3875 62.1055 36.1756 62.0456C35.5847 61.8786 34.9352 61.7655 34.3766 61.5474C34.0155 61.4065 33.6922 61.2272 33.3184 61.0941C33.1107 61.0201 32.952 60.996 32.8294 60.8569C32.555 60.5454 32.1628 60.3641 31.9098 60.0319C31.7957 59.882 31.4585 59.7741 31.4245 59.6023C31.3952 59.4542 31.3199 59.3214 31.2749 59.1753C31.2208 58.9994 31.0268 58.8622 31.0268 58.6798C31.0268 58.4654 30.9611 58.2568 30.9611 58.0419C30.9611 57.3691 31.4011 56.6726 31.0268 55.9966" stroke="#827E7E" stroke-width="2"/>
<path d="M62.7515 68.6639C62.5891 68.5172 62.6839 68.1105 62.726 67.9417C62.8453 67.4631 62.9946 66.9683 63.2916 66.529C64.0201 65.4515 64.8412 64.4467 66.4042 63.8932C66.857 63.7329 67.2374 63.4796 67.6997 63.3344C68.4599 63.0957 69.1874 62.8131 69.9475 62.5701C70.5398 62.3807 71.1616 62.2445 71.7793 62.1062C72.2058 62.0107 72.6049 61.8592 73.0309 61.7662C73.5591 61.6508 74.1031 61.6828 74.6401 61.6397C75.4581 61.574 76.3971 60.802 76.731 60.2954C76.9328 59.9894 77.0241 59.6207 77.3039 59.3492C77.677 58.9874 77.5797 58.5462 77.8586 58.1684C78.1092 57.829 78.1213 57.5349 78.1213 57.151C78.1213 56.9463 78.2002 56.6589 78.0848 56.4684C78.0623 56.4312 77.9088 56.2304 77.9681 56.3893C78.0642 56.6472 78.2252 56.8877 78.3038 57.151C78.4016 57.4786 78.5658 57.762 78.6468 58.0946C78.8182 58.7989 78.7125 59.5689 78.7125 60.2823C78.7125 60.8537 78.7707 61.3714 78.4826 61.9032C78.3636 62.1229 78.3319 62.3606 78.1724 62.5701C77.9073 62.9182 77.515 63.2458 77.2383 63.6086C77.057 63.8462 76.7519 64.0351 76.5522 64.2675C76.1713 64.7108 75.7693 64.7107 75.089 64.7946C74.4679 64.8712 73.8242 64.9446 73.2097 65.0477C72.4267 65.179 71.7406 65.4928 70.9437 65.5985C69.4151 65.8013 67.8999 65.6737 66.4736 66.2443C65.5626 66.6087 64.3514 67.0497 63.7988 67.7282C63.4206 68.1927 63.0627 68.6514 62.7515 69.1383" stroke="#827E7E" stroke-width="2"/>
<path d="M70.6335 70.8463C71.0465 70.7269 71.1029 70.2858 71.3961 70.0556C71.6387 69.8651 71.8305 69.6659 72.1004 69.4915C72.3556 69.3266 72.637 69.1797 72.8521 68.9855C73.1498 68.7167 73.8709 68.6011 74.2898 68.4741C74.6132 68.3761 74.9629 68.3431 75.3116 68.3344C75.8644 68.3207 76.3554 68.2563 76.8952 68.1789C77.4863 68.0941 78.0723 67.99 78.6687 67.9259C78.7599 67.9161 79.0569 67.9354 79.1358 67.8784C79.3882 67.6961 79.6726 67.5424 79.8619 67.3091C79.9788 67.1651 80.2067 67.0407 80.2743 66.8821C80.3473 66.7107 80.4247 66.5475 80.5187 66.3813C80.57 66.2908 80.6173 65.9989 80.6173 66.0967C80.6173 66.2469 80.6173 66.3972 80.6173 66.5474C80.6173 66.9245 80.6141 67.2968 80.5662 67.6729C80.507 68.1376 80.3596 68.5105 80.1575 68.9486C79.9008 69.5047 79.134 69.7076 78.3585 69.7076C77.1022 69.7076 75.8696 69.85 74.6036 69.85C74.0469 69.85 73.4425 69.7993 72.8886 69.8526C72.4529 69.8946 71.9788 70.0492 71.5676 70.1557C71.1771 70.2569 70.909 70.3347 70.7685 70.6222C70.7586 70.6425 70.6992 70.768 70.6992 70.704" stroke="#827E7E" stroke-width="2"/>
<path d="M28.071 65.9596C28.071 66.3381 28.0382 66.7266 28.0856 67.1035C28.1661 67.7431 28.5742 68.0449 29.0271 68.5743C29.3966 69.0062 29.6531 69.4569 30.0123 69.8869C30.234 70.1522 30.7271 70.1346 31.1253 70.1346C31.7697 70.1346 32.4118 70.142 33.0556 70.1531C33.6771 70.1638 34.3044 69.9923 34.9349 69.9923C35.2462 69.9923 35.4691 70.0231 35.7705 70.0872C36.1409 70.166 36.5583 70.1736 36.9126 70.2822C37.2463 70.3845 37.5782 70.5595 37.8505 70.7303C38.0482 70.8544 38.1146 70.9847 38.354 71.0835C38.5434 71.1617 38.5763 71.2945 38.5401 70.9965C38.4986 70.6546 38.3266 70.4353 38.0913 70.1505C37.7948 69.7916 37.4479 69.3513 36.9674 69.112C36.2477 68.7534 35.287 68.7255 34.4568 68.5796C33.6356 68.4351 32.7734 68.1973 31.9317 68.142C31.2704 68.0986 30.725 68.0765 30.2312 67.7361C29.943 67.5374 29.5146 67.4237 29.2788 67.1879C29.0581 66.9672 28.8113 66.6578 28.7278 66.3866C28.6671 66.1892 28.4479 66.0475 28.2608 65.9069C28.1394 65.8157 28.1444 65.7335 28.071 65.6275" stroke="#827E7E" stroke-width="2"/>
<path d="M54.6725 73.9301C54.0996 73.9301 53.6003 73.8118 53.0378 73.7904C52.7223 73.7784 52.5705 73.8816 52.2788 73.9195C51.9305 73.9648 51.9795 74.0325 51.9795 74.2622C51.9795 74.6286 52.4506 74.7043 52.7385 74.9501C52.9491 75.1299 53.1581 75.2968 53.2932 75.5115C53.3654 75.6262 53.5053 75.8866 53.6545 75.9464C54.0142 76.0908 54.043 76.3327 54.2274 76.5869C54.3178 76.7116 55.0523 76.1694 55.1323 76.1125C55.2494 76.0291 55.5518 75.9027 55.5921 75.7804C55.6338 75.6538 55.7638 75.5614 55.8877 75.472C56.0947 75.3225 56.2483 75.1246 56.5117 75.0213C56.9196 74.8613 57.4218 74.372 57.0736 74.0487C56.772 73.7686 56.0063 73.8826 55.5556 73.8826C54.9985 73.8826 54.4414 73.8826 53.8843 73.8826" stroke="#827E7E" stroke-width="2"/>
<path d="M61.6367 52.3592C61.6367 53.4002 61.0373 54.4436 59.8638 55.2676C58.6933 56.0896 57.0233 56.6297 55.1315 56.6297C53.2397 56.6297 51.5697 56.0896 50.3992 55.2676C49.2258 54.4436 48.6263 53.4002 48.6263 52.3592C48.6263 51.3182 49.2258 50.2748 50.3992 49.4507C51.5697 48.6288 53.2397 48.0887 55.1315 48.0887C57.0233 48.0887 58.6933 48.6288 59.8638 49.4507C61.0373 50.2748 61.6367 51.3182 61.6367 52.3592Z" stroke="#827E7E" stroke-width="2"/>
<defs>
<filter id="filter0_b_4_502" x="-3.74384" y="-3.7438" width="118" height="118" filterUnits="userSpaceOnUse" color-interpolation-filters="sRGB">
<feFlood flood-opacity="0" result="BackgroundImageFix"/>
<feGaussianBlur in="BackgroundImageFix" stdDeviation="2"/>
<feComposite in2="SourceAlpha" operator="in" result="effect1_backgroundBlur_4_502"/>
<feBlend mode="normal" in="SourceGraphic" in2="effect1_backgroundBlur_4_502" result="shape"/>
</filter>
<linearGradient id="paint0_linear_4_502" x1="55.5136" y1="0" x2="55.5136" y2="110" gradientUnits="userSpaceOnUse">
<stop stop-color="#EB4E4E" stop-opacity="0.69"/>
<stop offset="0.609375" stop-color="#FE5F5F" stop-opacity="0.61"/>
<stop offset="1" stop-color="#DF1818" stop-opacity="0.27"/>
</linearGradient>
</defs>
</svg>
