<svg width="28" height="30" viewBox="0 0 28 30" fill="none" xmlns="http://www.w3.org/2000/svg">
<path d="M0.5 13C0.5 11.3746 1.51799 10.1567 2.94667 9.55904C4.38367 8.9579 6.17742 9.01627 7.6027 9.92324C9.94729 11.4152 12.1807 12.1317 14.4425 12.03C16.7007 11.9285 18.9243 11.0142 21.2563 9.36099C22.4832 8.49118 24.0577 8.41 25.3286 8.93465C26.5921 9.45622 27.5 10.5474 27.5 12V23.4091C27.5 26.773 24.773 29.5 21.4091 29.5H14.0092L6.62573 29.2265C3.40126 29.1071 0.773778 26.6011 0.5 23.3882V13Z" fill="url(#paint0_linear_4_525)" stroke="#0E0E0E"/>
<path d="M19.4999 4.625C19.4999 4.7525 19.4477 4.94357 19.2988 5.20433C19.1531 5.45953 18.9357 5.74537 18.6583 6.05239C18.1037 6.66625 17.3526 7.31782 16.5852 7.91989C15.8209 8.51962 15.0545 9.05923 14.4781 9.44956C14.1992 9.63839 13.9656 9.79177 13.7992 9.8995C13.647 9.79254 13.4375 9.64317 13.1889 9.46059C12.658 9.07063 11.9522 8.53156 11.2482 7.93248C10.5416 7.33109 9.85013 6.68048 9.33962 6.06757C9.08441 5.76117 8.88384 5.47533 8.74908 5.21934C8.61185 4.95864 8.56055 4.76209 8.56055 4.625C8.56055 3.81932 9.09378 2.78901 10.0671 1.93819C11.0264 1.09962 12.3447 0.5 13.7878 0.5C15.2371 0.5 16.6845 1.10447 17.7719 1.95549C18.8818 2.82415 19.4999 3.85158 19.4999 4.625Z" fill="url(#paint1_linear_4_525)" stroke="#0E0E0E"/>
<defs>
<linearGradient id="paint0_linear_4_525" x1="14" y1="2.31818" x2="14" y2="30" gradientUnits="userSpaceOnUse">
<stop stop-color="white"/>
<stop offset="1" stop-color="#B8B3B3" stop-opacity="0"/>
</linearGradient>
<linearGradient id="paint1_linear_4_525" x1="13.7878" y1="1" x2="13.7878" y2="9.56818" gradientUnits="userSpaceOnUse">
<stop stop-color="white"/>
<stop offset="1" stop-color="#B8B3B3" stop-opacity="0"/>
</linearGradient>
</defs>
</svg>
